<svg width="24" height="24" viewBox="0 0 16 16" fill="currentColor" xmlns="http://www.w3.org/2000/svg"><path d="M12.1956 2.86165C12.456 2.60168 12.8778 2.60157 13.138 2.86165C13.3984 3.122 13.3984 3.54466 13.138 3.80501L8.9427 7.99935L13.138 12.1956C13.3982 12.456 13.3983 12.8777 13.138 13.138C12.8777 13.3983 12.456 13.3982 12.1956 13.138L7.99934 8.94271L3.805 13.138C3.54465 13.3984 3.12199 13.3984 2.86164 13.138C2.60157 12.8778 2.60167 12.456 2.86164 12.1956L7.05696 7.99935L2.86164 3.80501C2.60129 3.54466 2.60129 3.122 2.86164 2.86165C3.12199 2.6013 3.54465 2.6013 3.805 2.86165L7.99934 7.05696L12.1956 2.86165Z" fill="currentColor"/></svg>