<svg width="24" height="24" viewBox="0 0 16 16" fill="currentColor" xmlns="http://www.w3.org/2000/svg"><path d="M8.11426 1.375C8.63348 1.37505 9.13182 1.58115 9.49902 1.94824L12.7178 5.16797C13.0849 5.53522 13.291 6.03347 13.291 6.55273V12C13.291 13.4498 12.1158 14.625 10.666 14.625H5.33301C3.88338 14.6249 2.70801 13.4497 2.70801 12V4C2.70801 2.55034 3.88338 1.37513 5.33301 1.375H8.11426ZM5.33301 2.625C4.57373 2.62513 3.95801 3.24069 3.95801 4V12C3.95801 12.7593 4.57372 13.3749 5.33301 13.375H10.666C11.4254 13.375 12.041 12.7594 12.041 12V6.625H10C8.91857 6.62482 8.04199 5.74746 8.04199 4.66602V2.625H5.33301ZM10.333 10.708C10.6781 10.708 10.9578 10.988 10.958 11.333C10.958 11.6782 10.6782 11.958 10.333 11.958H6C5.65482 11.958 5.375 11.6782 5.375 11.333C5.3752 10.988 5.65494 10.708 6 10.708H10.333ZM8 8.04199C8.34518 8.04199 8.625 8.32181 8.625 8.66699C8.6248 9.012 8.34506 9.29199 8 9.29199H6C5.65494 9.29199 5.3752 9.012 5.375 8.66699C5.375 8.32181 5.65482 8.04199 6 8.04199H8ZM9.29199 4.66602C9.29199 5.05712 9.60893 5.37482 10 5.375H11.1572L9.29199 3.50879V4.66602Z" fill="currentColor"/></svg>