<svg width="24" height="24" viewBox="0 0 16 16" fill="currentColor" xmlns="http://www.w3.org/2000/svg"><path d="M14 7.11719C14 6.54612 13.9991 6.15749 13.9746 5.85742C13.9507 5.56535 13.9076 5.41575 13.8545 5.31152C13.7267 5.06075 13.5223 4.85726 13.2715 4.72949C13.1672 4.6764 13.0177 4.63225 12.7256 4.6084C12.4256 4.5839 12.0375 4.58398 11.4668 4.58398H4.5332C3.96249 4.58398 3.5744 4.5839 3.27441 4.6084C2.98213 4.63227 2.83181 4.67636 2.72754 4.72949C2.47697 4.85727 2.27325 5.06094 2.14551 5.31152C2.0924 5.41575 2.04928 5.56536 2.02539 5.85742C2.00088 6.15749 2 6.54612 2 7.11719V8.7168C2 9.28786 2.00088 9.6765 2.02539 9.97656C2.04927 10.2687 2.09239 10.4182 2.14551 10.5225C2.27331 10.7732 2.47678 10.9777 2.72754 11.1055C2.83181 11.1586 2.98213 11.2017 3.27441 11.2256C3.5744 11.2501 3.96248 11.25 4.5332 11.25H11.4668C12.0375 11.25 12.4256 11.2501 12.7256 11.2256C13.0173 11.2018 13.1672 11.1585 13.2715 11.1055C13.5223 10.9777 13.7267 10.7733 13.8545 10.5225C13.9076 10.4182 13.9507 10.2687 13.9746 9.97656C13.9991 9.6765 14 9.28786 14 8.7168V7.11719ZM4 8.41699C4.45996 8.41719 4.83379 8.79009 4.83398 9.25C4.83398 9.71007 4.46008 10.0828 4 10.083C3.5399 10.0828 3.16699 9.71009 3.16699 9.25C3.16719 8.79008 3.54002 8.41717 4 8.41699ZM12 8.41699C12.4599 8.41719 12.8338 8.79009 12.834 9.25C12.834 9.71008 12.46 10.0828 12 10.083C11.5399 10.0828 11.167 9.7101 11.167 9.25C11.1672 8.79007 11.5401 8.41717 12 8.41699ZM9.33301 8.58398C9.70109 8.58398 9.9998 8.88197 10 9.25C10 9.6182 9.70121 9.91699 9.33301 9.91699H6.66699C6.29881 9.91699 6 9.6182 6 9.25C6.0002 8.88197 6.29893 8.58398 6.66699 8.58398H9.33301ZM4 5.75C4.45985 5.7502 4.83361 6.12325 4.83398 6.58301C4.83398 7.04308 4.46008 7.41679 4 7.41699C3.5399 7.41682 3.16699 7.04309 3.16699 6.58301C3.16737 6.12324 3.54013 5.75018 4 5.75ZM6.66699 5.75C7.1268 5.7502 7.49963 6.12324 7.5 6.58301C7.5 7.04309 7.12703 7.41679 6.66699 7.41699C6.20675 7.41699 5.83398 7.0432 5.83398 6.58301C5.83436 6.12313 6.20698 5.75 6.66699 5.75ZM9.33398 5.75C9.79364 5.75037 10.1666 6.12335 10.167 6.58301C10.167 7.04298 9.79387 7.41662 9.33398 7.41699C8.87378 7.41699 8.5 7.04321 8.5 6.58301C8.50037 6.12312 8.87401 5.75 9.33398 5.75ZM12 5.75C12.4598 5.7502 12.8336 6.12324 12.834 6.58301C12.834 7.04309 12.46 7.41679 12 7.41699C11.5399 7.41682 11.167 7.0431 11.167 6.58301C11.1674 6.12323 11.5402 5.75018 12 5.75ZM15.333 8.7168C15.333 9.26586 15.3337 9.71803 15.3037 10.085C15.2731 10.4597 15.2078 10.8043 15.043 11.1279C14.7873 11.6296 14.3787 12.0373 13.877 12.293C13.5535 12.4577 13.2094 12.5241 12.835 12.5547C12.4681 12.5847 12.0158 12.584 11.4668 12.584H4.5332C3.98419 12.584 3.53197 12.5847 3.16504 12.5547C2.79055 12.5241 2.44642 12.4577 2.12305 12.293C1.62131 12.0373 1.2127 11.6296 0.957031 11.1279C0.792183 10.8044 0.726912 10.4597 0.696289 10.085C0.66631 9.71803 0.666992 9.26586 0.666992 8.7168V7.11719C0.666992 6.56812 0.66631 6.11596 0.696289 5.74902C0.726915 5.37435 0.792194 5.02961 0.957031 4.70605C1.2127 4.20438 1.62133 3.79666 2.12305 3.54102C2.44639 3.37633 2.79059 3.3109 3.16504 3.28027C3.53197 3.2503 3.98419 3.25 4.5332 3.25H11.4668C12.0158 3.25 12.4681 3.2503 12.835 3.28027C13.2094 3.3109 13.5536 3.37633 13.877 3.54102C14.3786 3.79666 14.7873 4.20436 15.043 4.70605C15.2078 5.02961 15.2731 5.37435 15.3037 5.74902C15.3337 6.11596 15.333 6.56812 15.333 7.11719V8.7168Z" fill="currentColor"/></svg>