<svg width="24" height="24" viewBox="0 0 16 16" fill="currentColor" xmlns="http://www.w3.org/2000/svg"><path d="M2.02283 7.99963C2.023 4.7092 4.69039 2.04181 7.98083 2.04163C9.70593 2.04163 10.9485 2.67858 12.0414 3.7135V2.66663C12.0414 2.32156 12.3214 2.0418 12.6664 2.04163C13.0116 2.04163 13.2914 2.32145 13.2914 2.66663V4.66663C13.2914 5.37987 12.7136 5.95844 12.0004 5.95862H10.0004C9.6553 5.95862 9.37554 5.67865 9.37537 5.33362C9.37537 4.98844 9.65519 4.70862 10.0004 4.70862H11.2748C10.3234 3.77588 9.34581 3.29163 7.98083 3.29163C5.38074 3.29181 3.273 5.39955 3.27283 7.99963C3.27283 10.5999 5.38063 12.7084 7.98083 12.7086C10.0298 12.7086 11.7755 11.3993 12.4222 9.56995C12.5372 9.24461 12.8938 9.07329 13.2191 9.18811C13.5446 9.30315 13.715 9.66052 13.6 9.98596C12.7823 12.2992 10.5761 13.9586 7.98083 13.9586C4.69028 13.9584 2.02283 11.2902 2.02283 7.99963Z" fill="currentColor"/></svg>