<svg width="24" height="24" viewBox="0 0 16 16" fill="currentColor" xmlns="http://www.w3.org/2000/svg"><path d="M7.33398 2.04199C10.2562 2.0423 12.625 4.41167 12.625 7.33398C12.6248 8.5697 12.1992 9.70502 11.4893 10.6055L13.7754 12.8916C14.0192 13.1357 14.0193 13.5314 13.7754 13.7754C13.5314 14.0194 13.1357 14.0192 12.8916 13.7754L10.6045 11.4893C9.70413 12.1989 8.56941 12.6249 7.33398 12.625C4.4117 12.625 2.04235 10.2562 2.04199 7.33398C2.04199 4.41148 4.41148 2.04199 7.33398 2.04199ZM7.33398 3.29199C5.10184 3.29199 3.29199 5.10184 3.29199 7.33398C3.29235 9.56583 5.10206 11.375 7.33398 11.375C9.56566 11.3747 11.3746 9.56565 11.375 7.33398C11.375 5.10203 9.56588 3.2923 7.33398 3.29199Z" fill="currentColor"/></svg>