<svg width="24" height="24" viewBox="0 0 16 16" fill="currentColor" xmlns="http://www.w3.org/2000/svg"><path d="M9.27382 1.46425C8.76135 0.400914 7.23942 0.400912 6.72695 1.46425L5.38355 4.25173C5.37351 4.27257 5.35159 4.29024 5.3224 4.29405L2.22974 4.69769C1.05991 4.85037 0.571553 6.29213 1.44358 7.11175L3.70598 9.23815C3.72441 9.25548 3.73097 9.27861 3.72705 9.29955L3.15908 12.3365C2.93905 13.513 4.1882 14.3833 5.21868 13.8295L7.96028 12.3562C7.98508 12.3429 8.01568 12.3429 8.04042 12.3562L10.7821 13.8295C11.8125 14.3833 13.0617 13.513 12.8417 12.3365L12.2737 9.29955C12.2698 9.27861 12.2763 9.25548 12.2947 9.23815L14.5571 7.11175C15.4292 6.29213 14.9408 4.85037 13.771 4.69769L10.6784 4.29405C10.6491 4.29024 10.6272 4.27257 10.6172 4.25173L9.27382 1.46425Z" fill="currentColor"/></svg>