<svg width="24" height="24" viewBox="0 0 16 16" fill="currentColor" xmlns="http://www.w3.org/2000/svg"><path d="M10 13.5752C10.3449 13.5754 10.6249 13.8552 10.625 14.2002C10.6248 14.5451 10.3449 14.825 10 14.8252H6C5.65514 14.825 5.37524 14.545 5.375 14.2002C5.37513 13.8553 5.65507 13.5754 6 13.5752H10ZM8 0.708008C10.9223 0.708184 13.2909 3.07771 13.291 6C13.2909 7.96734 12.216 9.68039 10.625 10.5918V11.3994C10.625 12.076 10.076 12.625 9.39941 12.625H6.59961C5.92326 12.6248 5.375 12.0758 5.375 11.3994V10.5918C3.78396 9.68041 2.70813 7.96738 2.70801 6C2.70814 3.07773 5.07774 0.708206 8 0.708008ZM8 1.95801C5.7681 1.95821 3.95814 3.76808 3.95801 6C3.95813 7.57211 4.85639 8.93594 6.16992 9.60449C6.43938 9.74172 6.62491 10.022 6.625 10.3438V11.375H9.375V10.3438C9.37509 10.0219 9.56059 9.74171 9.83008 9.60449L10.0713 9.4707C11.2522 8.76427 12.0409 7.47386 12.041 6C12.0409 3.76807 10.2319 1.95818 8 1.95801ZM7.46973 4.13574C7.65264 3.8432 8.03841 3.75383 8.33105 3.93652C8.62365 4.11939 8.71292 4.50519 8.53027 4.79785L8.12793 5.44141H8.63867C9.28659 5.44144 9.68217 6.15464 9.33887 6.7041L8.53027 7.99805C8.3474 8.29064 7.96161 8.37992 7.66895 8.19727C7.37638 8.0144 7.28712 7.62859 7.46973 7.33594L7.87207 6.69141H7.36133C6.7134 6.69141 6.31787 5.97916 6.66113 5.42969L7.46973 4.13574Z" fill="currentColor"/></svg>